<svg width="17" height="16" viewBox="0 0 17 16" fill="none" xmlns="http://www.w3.org/2000/svg">
<path fill-rule="evenodd" clip-rule="evenodd" d="M8.5 16C12.9183 16 16.5 12.4183 16.5 8C16.5 3.58172 12.9183 0 8.5 0C4.08172 0 0.5 3.58172 0.5 8C0.5 12.4183 4.08172 16 8.5 16ZM9.5 4C9.5 3.44772 9.05229 3 8.5 3C7.94772 3 7.5 3.44772 7.5 4V8V8.53518L7.9453 8.83205L10.9453 10.8321C11.4048 11.1384 12.0257 11.0142 12.3321 10.5547C12.6384 10.0952 12.5142 9.4743 12.0547 9.16795L9.5 7.46482V4Z" fill="#A9D7C2"/>
</svg>
