<svg width="18" height="18" viewBox="0 0 18 18" fill="none" xmlns="http://www.w3.org/2000/svg">
<path fill-rule="evenodd" clip-rule="evenodd" d="M9.61154 16.0575C7.34285 14.957 5.35514 13.4018 3.70392 11.4264C2.3441 9.79131 1.42829 8.26034 0.821229 6.61133C0.425768 5.54555 0.273135 4.66376 0.339045 3.83405C0.394548 3.17098 0.661657 2.59816 1.13343 2.12603L2.43082 0.827648C2.802 0.473545 3.22521 0.289551 3.66577 0.289551C4.10979 0.289551 4.52953 0.473545 4.88684 0.824177C5.12273 1.04289 5.36208 1.2859 5.59103 1.52197L5.60061 1.53183C5.71518 1.64987 5.82674 1.7648 5.94487 1.88301L6.97861 2.91755C7.35673 3.29248 7.55446 3.72643 7.55446 4.16732C7.55446 4.60822 7.35326 5.04217 6.97861 5.4171C6.87108 5.52472 6.76354 5.63234 6.65947 5.73996C6.36461 6.04199 6.05934 6.35096 5.73326 6.64604C5.96568 7.18414 6.2987 7.71182 6.79476 8.34018C7.77647 9.54483 8.80328 10.4822 9.93416 11.2008C10.0486 11.2737 10.177 11.3396 10.3157 11.4091L10.3158 11.4091C10.4268 11.4646 10.5447 11.5236 10.6592 11.5896L11.9011 10.3468C12.2653 9.98225 12.692 9.78784 13.136 9.78784C13.58 9.78784 14.0032 9.98225 14.3571 10.3502L16.4419 12.4367C17.1877 13.1831 17.1877 14.1621 16.4488 14.9327C16.2893 15.0994 16.1228 15.2625 15.9597 15.4188C15.9432 15.4348 15.9268 15.4507 15.9105 15.4666C15.689 15.6816 15.4776 15.8868 15.2902 16.1131C15.2867 16.12 15.2798 16.127 15.2763 16.1304C14.7109 16.7449 14.0171 17.0435 13.1533 17.0435C13.0767 17.0435 13.0033 17.0403 12.9269 17.0369L12.9175 17.0365C11.6305 16.9532 10.4753 16.4672 9.61154 16.0575Z" fill="#A9D7C2"/>
</svg>
