<svg width="16" height="20" viewBox="0 0 16 20" fill="none" xmlns="http://www.w3.org/2000/svg">
<path fill-rule="evenodd" clip-rule="evenodd" d="M6.77336 0.649813C5.28536 0.934088 4.08715 1.56873 3.01749 2.63922C1.39151 4.26653 0.647254 6.53748 1.0272 8.71276C1.51666 11.5155 3.77642 15.1948 7.14431 18.6724C7.54703 19.0882 7.93257 19.4284 8.00112 19.4284C8.06966 19.4284 8.4552 19.0882 8.85792 18.6724C12.2258 15.1948 14.4856 11.5155 14.975 8.71276C15.355 6.53748 14.6107 4.26653 12.9847 2.63922C12.0404 1.69427 10.9992 1.09607 9.70706 0.756324C8.97378 0.563513 7.50428 0.510184 6.77336 0.649813ZM8.67926 4.46421C9.96716 4.73793 10.9612 5.79898 11.1917 7.14622C11.417 8.4619 10.6848 9.89227 9.47276 10.5046C7.52123 11.4905 5.18755 10.308 4.81704 8.14554C4.43621 5.9229 6.46115 3.99288 8.67926 4.46421Z" fill="#A9D7C2"/>
</svg>
